<?xml version="1.0" encoding="utf-8"?>
<!-- Generator: Adobe Illustrator 24.0.0, SVG Export Plug-In . SVG Version: 6.00 Build 0)  -->
<svg version="1.1" xmlns="http://www.w3.org/2000/svg" xmlns:xlink="http://www.w3.org/1999/xlink" x="0px" y="0px"
	 viewBox="0 0 256 256" style="enable-background:new 0 0 256 256;" xml:space="preserve">
<style type="text/css">
	.st0{fill:#F98FA6;}
	.st1{fill:#FC657E;}
	.st2{fill:#DAE6F1;}
	.st3{fill:#5290DB;}
	.st4{fill:#FCDD86;}
	.st5{fill:#F5C84C;}
	.st6{fill:#87D147;}
	.st7{fill:#70D6F9;}
	.st8{fill:#EDF4FC;}
	.st9{fill:#9BE5F9;}
	.st10{fill:#B2E26D;}
	.st11{fill:#F9C1A8;}
	.st12{fill:#414344;}
	.st13{fill:#E1FBFF;}
	.st14{fill:#FFE3EC;}
	.st15{fill:#FCBECF;}
	.st16{fill:#EF4460;}
	.st17{fill:#80C2F9;}
	.st18{fill:#3A70BF;}
	.st19{fill:#FCA265;}
	.st20{fill:#5B5D60;}
	.st21{fill:#818182;}
	.st22{fill:#C7D7E5;}
	.st23{fill:#F9D0B4;}
	.st24{fill:#AA6F59;}
	.st25{fill:#D1856D;}
	.st26{fill:#FCC29A;}
	.st27{fill:#29589F;}
	.st28{fill:#F7B386;}
	.st29{fill:#FC8C48;}
	.st30{fill:#FFF0CC;}
	.st31{fill:#57AF12;}
	.st32{fill:#3CAADC;}
	.st33{fill:#EDB311;}
	.st34{fill:#231F20;}
</style>
<g id="Layer_1">
</g>
<g id="Layer_2">
</g>
<g id="Layer_3">
</g>
<g id="Layer_4">
</g>
<g id="Layer_5">
</g>
<g id="Layer_6">
</g>
<g id="Layer_7">
</g>
<g id="Layer_8">
</g>
<g id="Layer_9">
</g>
<g id="Layer_10">
</g>
<g id="Layer_11">
</g>
<g id="Layer_12">
</g>
<g id="Layer_13">
</g>
<g id="Layer_14">
</g>
<g id="Layer_15">
</g>
<g id="Layer_16">
</g>
<g id="Layer_17">
	<g>
		<g>
			<g>
				<path class="st8" d="M203.047,205.549H20.088c-2.302,0-3.95,2.207-3.324,4.422c0.021,0.074,0.042,0.148,0.063,0.222
					c2.883,10.146,12.23,17.092,22.778,17.092H183.53c10.548,0,19.894-6.947,22.778-17.092c0.021-0.074,0.042-0.148,0.063-0.222
					C206.997,207.756,205.348,205.549,203.047,205.549z"/>
			</g>
		</g>
		<g>
			<g>
				<path class="st2" d="M41.477,227.285c1.229,7.23,7.545,12.786,15.111,12.786h109.96c7.566,0,13.882-5.556,15.111-12.786H41.477z
					"/>
			</g>
		</g>
		<g>
			<g>
				<path class="st8" d="M252.415,121.578c-4.678-19.79-23.391-33.333-44.472-32.204l-1.739,0.093
					c-0.137,5.21-0.516,10.355-1.114,15.427l3.741-0.201c13.276-0.714,25.063,7.819,28.008,20.282
					c3.685,15.591-7.948,30.701-24.503,31.808c-9.119,0.609-17.308,2.483-24.758,5.131c-5.003,9.581-10.905,18.551-17.593,26.775
					c15.18-10.659,28.25-15.584,43.458-16.601C239.79,170.328,258.263,146.325,252.415,121.578z"/>
			</g>
		</g>
		<g>
			<g>
				<path class="st2" d="M195.062,73.043H28.072c-6.12,0-11.198,5.245-11.205,11.783v0.12c0,32.477,9.166,62.657,24.871,87.777
					c2.842-1.837,6.112-2.886,9.594-2.886c6.759,0,12.724,3.945,16.295,9.962c3.571-6.015,9.531-9.962,16.289-9.962
					c10.932,0,19.794,10.312,19.794,23.033c0,4.686-1.206,9.043-3.271,12.68h50.47c3.098-0.916,5.978-2.594,8.36-4.973
					c28.914-28.889,46.997-69.997,46.997-115.63v-0.12C206.26,78.287,201.182,73.043,195.062,73.043z"/>
			</g>
		</g>
		<g>
			<g>
				<path class="st20" d="M83.917,169.836c-6.76,0-12.721,3.949-16.292,9.967c2.204,3.714,3.502,8.212,3.502,13.066
					c0,4.691-1.22,9.041-3.29,12.68h32.603c2.066-3.637,3.271-7.994,3.271-12.68C103.711,180.148,94.849,169.836,83.917,169.836z"/>
			</g>
		</g>
		<g>
			<g>
				<path class="st21" d="M51.333,169.836c-10.932,0-19.794,10.312-19.794,23.033c0,4.686,1.206,9.043,3.271,12.68h33.045
					c2.066-3.637,3.271-7.994,3.271-12.68C71.127,180.148,62.264,169.836,51.333,169.836z"/>
			</g>
		</g>
		<g>
			<g>
				<path class="st19" d="M195.062,73.043H28.072c-6.12,0-11.198,5.245-11.205,11.783v0.12c0,4.011,0.148,7.986,0.422,11.922
					h188.555c0.275-3.936,0.422-7.91,0.422-11.922v-0.12C206.26,78.287,201.182,73.043,195.062,73.043z"/>
			</g>
		</g>
		<g>
			<g>
				<path class="st5" d="M205.983,42.697c-4.498-0.838-8.043-4.31-8.898-8.716c-0.043-0.221-0.352-0.221-0.395,0
					c-0.855,4.406-4.4,7.879-8.898,8.716c-0.226,0.042-0.226,0.345,0,0.387c4.498,0.838,8.043,4.31,8.898,8.717
					c0.043,0.221,0.352,0.221,0.395,0c0.855-4.406,4.4-7.879,8.898-8.717C206.209,43.042,206.209,42.739,205.983,42.697z"/>
			</g>
		</g>
		<g>
			<g>
				<path class="st10" d="M218.711,190.332c-3.206-0.597-5.733-3.073-6.343-6.214c-0.031-0.158-0.251-0.158-0.281,0
					c-0.61,3.141-3.136,5.617-6.343,6.214c-0.161,0.03-0.161,0.246,0,0.276c3.206,0.597,5.733,3.073,6.343,6.214
					c0.031,0.158,0.251,0.158,0.281,0c0.609-3.141,3.136-5.617,6.343-6.214C218.872,190.578,218.872,190.362,218.711,190.332z"/>
			</g>
		</g>
		<g>
			<g>
				<path class="st7" d="M21.694,160.302h-2.329v-2.33c0-1.744-1.413-3.157-3.157-3.157c-1.744,0-3.157,1.413-3.157,3.157v2.33
					h-2.33c-1.744,0-3.157,1.413-3.157,3.157s1.413,3.157,3.157,3.157h2.33v2.33c0,1.744,1.413,3.157,3.157,3.157
					c1.744,0,3.157-1.413,3.157-3.157v-2.33h2.329c1.744,0,3.157-1.413,3.157-3.157S23.438,160.302,21.694,160.302z"/>
			</g>
		</g>
		<g>
			<g>
				<path class="st1" d="M214.999,56.06c-1.865,0-3.377,1.512-3.377,3.377s1.512,3.377,3.377,3.377s3.377-1.512,3.377-3.377
					S216.864,56.06,214.999,56.06z"/>
			</g>
		</g>
		<g>
			<g>
				<path class="st5" d="M3.377,136.06c-1.865,0-3.377,1.512-3.377,3.377s1.512,3.377,3.377,3.377s3.377-1.512,3.377-3.377
					S5.242,136.06,3.377,136.06z"/>
			</g>
		</g>
		<g>
			<g>
				<path d="M113.692,31.861c-2.724-2.725-3.547-5.771-2.514-9.315c0.831-2.852,2.595-4.932,2.634-4.978
					c0.903-1.039,0.796-2.614-0.241-3.521c-1.038-0.909-2.618-0.804-3.527,0.235c-3.39,3.874-7.728,13.272,0.114,21.114
					c2.725,2.725,3.547,5.772,2.514,9.315c-0.836,2.87-2.616,4.958-2.628,4.971c-0.909,1.04-0.804,2.619,0.235,3.528
					c0.475,0.415,1.061,0.619,1.646,0.619c0.696,0,1.388-0.289,1.882-0.854C117.195,49.102,121.534,39.703,113.692,31.861z"/>
			</g>
		</g>
		<g>
			<g>
				<path d="M138.895,31.861c-2.725-2.725-3.547-5.771-2.514-9.315c0.831-2.851,2.593-4.931,2.634-4.978
					c0.903-1.039,0.796-2.614-0.241-3.521c-1.04-0.909-2.619-0.804-3.528,0.235c-3.39,3.875-7.729,13.273,0.114,21.114
					c2.725,2.725,3.547,5.772,2.514,9.315c-0.836,2.87-2.616,4.958-2.628,4.971c-0.909,1.04-0.804,2.619,0.235,3.528
					c0.475,0.415,1.061,0.619,1.646,0.619c0.696,0,1.388-0.289,1.882-0.854C142.398,49.102,146.737,39.703,138.895,31.861z"/>
			</g>
		</g>
		<g>
			<g>
				<path d="M164.097,31.861c-2.725-2.725-3.547-5.771-2.514-9.315c0.831-2.851,2.593-4.931,2.634-4.978
					c0.903-1.039,0.796-2.614-0.241-3.521c-1.04-0.909-2.619-0.804-3.528,0.235c-3.39,3.875-7.729,13.273,0.114,21.114
					c2.725,2.725,3.547,5.772,2.514,9.315c-0.836,2.87-2.616,4.958-2.628,4.971c-0.909,1.04-0.804,2.619,0.235,3.528
					c0.475,0.415,1.061,0.619,1.646,0.619c0.696,0,1.388-0.289,1.882-0.854C167.6,49.102,171.939,39.703,164.097,31.861z"/>
			</g>
		</g>
		<g>
			<g>
				<path d="M88.49,31.861c-2.725-2.725-3.547-5.771-2.514-9.315c0.831-2.851,2.593-4.931,2.634-4.978
					c0.903-1.039,0.796-2.614-0.241-3.521c-1.04-0.909-2.619-0.804-3.528,0.235c-3.39,3.875-7.729,13.273,0.114,21.114
					c2.725,2.725,3.547,5.772,2.514,9.315c-0.836,2.87-2.616,4.958-2.628,4.971c-0.909,1.04-0.804,2.619,0.235,3.528
					c0.475,0.415,1.061,0.619,1.646,0.619c0.696,0,1.388-0.289,1.882-0.854C91.993,49.102,96.332,39.703,88.49,31.861z"/>
			</g>
		</g>
		<g>
			<g>
				<path d="M63.288,31.861c-2.725-2.725-3.547-5.771-2.514-9.315c0.831-2.851,2.593-4.931,2.634-4.978
					c0.903-1.039,0.796-2.614-0.241-3.521c-1.04-0.909-2.619-0.804-3.528,0.235c-3.39,3.875-7.729,13.273,0.114,21.114
					c2.724,2.725,3.547,5.772,2.514,9.315c-0.836,2.87-2.616,4.958-2.628,4.972c-0.909,1.039-0.804,2.618,0.235,3.527
					c0.474,0.415,1.061,0.619,1.645,0.619c0.696,0,1.388-0.289,1.882-0.854C66.791,49.102,71.129,39.703,63.288,31.861z"/>
			</g>
		</g>
		<g>
			<g>
				<g>
					<path d="M207.792,205.41c-1.135-1.5-2.865-2.361-4.746-2.361H20.088c-1.88,0-3.61,0.86-4.745,2.36
						c-1.141,1.508-1.5,3.419-0.983,5.247l0.063,0.221c3.164,11.133,13.52,18.909,25.183,18.909H183.53
						c11.663,0,22.018-7.775,25.182-18.908l0.064-0.226C209.292,208.829,208.933,206.918,207.792,205.41z M203.966,209.287
						l-0.063,0.223c-2.556,8.994-10.934,15.276-20.373,15.276H39.604c-9.439,0-17.817-6.282-20.374-15.277l-0.062-0.217
						c-0.117-0.414,0.051-0.72,0.161-0.865c0.107-0.141,0.347-0.377,0.758-0.377h182.958c0.411,0,0.651,0.236,0.758,0.377
						C203.915,208.572,204.082,208.877,203.966,209.287z"/>
				</g>
			</g>
		</g>
		<g>
			<g>
				<path d="M182.058,225.499c-1.354-0.291-2.68,0.568-2.971,1.917c-1.269,5.885-6.542,10.156-12.541,10.156H56.587
					c-5.985,0-11.257-4.261-12.535-10.131c-0.294-1.349-1.625-2.206-2.975-1.911c-1.349,0.293-2.205,1.625-1.911,2.975
					c1.774,8.151,9.101,14.067,17.42,14.067h109.959c8.337,0,15.667-5.931,17.428-14.102
					C184.266,227.12,183.408,225.79,182.058,225.499z"/>
			</g>
		</g>
		<g>
			<g>
				<path d="M239.273,124.399c-3.225-13.645-16.09-22.981-30.575-22.203l-2.829,0.151c-1.379,0.074-2.437,1.251-2.363,2.63
					c0.074,1.379,1.25,2.437,2.63,2.363l2.83-0.151c12.083-0.667,22.772,7.072,25.44,18.36c1.541,6.519,0.113,13.389-3.917,18.847
					c-4.278,5.793-10.955,9.399-18.32,9.891c-8.544,0.571-16.635,2.215-24.733,5.026c-1.304,0.453-1.995,1.877-1.542,3.182
					c0.359,1.033,1.327,1.681,2.362,1.681c0.272,0,0.548-0.044,0.82-0.139c7.671-2.663,15.334-4.22,23.427-4.761
					c8.834-0.591,16.857-4.932,22.009-11.911C239.417,140.723,241.153,132.353,239.273,124.399z"/>
			</g>
		</g>
		<g>
			<g>
				<path d="M254.848,121.002c-4.956-20.967-24.735-35.321-47.038-34.125l-0.822,0.044c-1.379,0.074-2.437,1.251-2.363,2.63
					c0.073,1.378,1.235,2.431,2.63,2.363l0.823-0.044c19.876-1.072,37.505,11.671,41.905,30.282
					c2.544,10.767,0.187,22.11-6.467,31.122c-7.058,9.559-18.079,15.507-30.236,16.319c-15.766,1.054-29.068,6.101-44.48,16.875
					c-1.131,0.791-1.407,2.35-0.616,3.481c0.486,0.695,1.262,1.067,2.051,1.067c0.495,0,0.995-0.146,1.431-0.451
					c14.611-10.215,27.157-14.996,41.948-15.984c13.627-0.911,25.992-7.595,33.925-18.338
					C255.066,146.047,257.731,133.203,254.848,121.002z"/>
			</g>
		</g>
		<g>
			<g>
				<path d="M195.062,70.543H28.072c-7.549,0-13.697,6.406-13.705,14.283v0.121c0,31.429,8.51,61.882,24.609,88.066
					c0.724,1.176,2.264,1.544,3.439,0.82c1.176-0.724,1.543-2.263,0.82-3.439c-15.615-25.396-23.869-54.943-23.869-85.447v-0.118
					c0.005-5.12,3.91-9.285,8.705-9.285h166.99c4.795,0,8.7,4.165,8.705,9.283v0.121c0,42.984-16.863,84.485-46.264,113.861
					c-2.033,2.031-4.558,3.534-7.301,4.344c-1.324,0.391-2.08,1.782-1.689,3.106c0.321,1.088,1.317,1.792,2.396,1.792
					c0.234,0,0.473-0.033,0.709-0.103c3.54-1.046,6.797-2.983,9.418-5.602c30.333-30.307,47.73-73.097,47.73-117.398v-0.123
					C208.76,76.949,202.612,70.543,195.062,70.543z"/>
			</g>
		</g>
		<g>
			<g>
				<path d="M83.917,167.336c-7.1,0-13.838,3.928-18.022,10.507c-0.741,1.165-0.397,2.71,0.768,3.451
					c1.165,0.742,2.71,0.397,3.451-0.768c3.311-5.206,8.342-8.191,13.804-8.191c9.536,0,17.294,9.211,17.294,20.533
					c0,3.814-0.892,7.54-2.58,10.774c-0.639,1.224-0.165,2.734,1.06,3.373c0.37,0.193,0.765,0.284,1.155,0.284
					c0.901,0,1.772-0.489,2.218-1.344c2.059-3.946,3.147-8.472,3.147-13.087C106.211,178.79,96.21,167.336,83.917,167.336z"/>
			</g>
		</g>
		<g>
			<g>
				<path d="M51.333,167.336c-12.293,0-22.294,11.454-22.294,25.533c0,4.657,1.106,9.217,3.2,13.188
					c0.448,0.85,1.315,1.334,2.213,1.334c0.393,0,0.792-0.093,1.164-0.289c1.221-0.644,1.689-2.156,1.045-3.377
					c-1.716-3.255-2.623-7.009-2.623-10.856c0-11.322,7.758-20.533,17.294-20.533s17.294,9.211,17.294,20.533
					c0,3.847-0.907,7.601-2.622,10.855c-0.644,1.222-0.176,2.734,1.045,3.377c1.223,0.646,2.734,0.176,3.377-1.045
					c2.093-3.971,3.199-8.53,3.199-13.187C73.626,178.791,63.625,167.336,51.333,167.336z"/>
			</g>
		</g>
		<g>
			<g>
				<path d="M53.163,190.121c-8.332-8.95-0.338-17.873,0.006-18.249c0.935-1.011,0.876-2.588-0.132-3.526
					c-1.011-0.942-2.593-0.884-3.533,0.126c-4.034,4.333-9.225,15.146,0,25.056c2.997,3.219,4.234,6.928,3.677,11.023
					c-0.186,1.368,0.772,2.628,2.14,2.814c0.114,0.016,0.228,0.023,0.34,0.023c1.231,0,2.304-0.91,2.474-2.164
					C58.892,199.652,57.173,194.429,53.163,190.121z"/>
			</g>
		</g>
		<g>
			<g>
				<path d="M85.747,190.121c-8.326-8.944-0.35-17.86,0.006-18.248c0.935-1.011,0.876-2.588-0.132-3.527
					c-1.011-0.942-2.593-0.884-3.533,0.126c-4.034,4.333-9.226,15.146,0,25.056c2.997,3.219,4.234,6.928,3.677,11.024
					c-0.186,1.368,0.772,2.628,2.14,2.814c0.114,0.016,0.228,0.023,0.34,0.023c1.231,0,2.304-0.91,2.474-2.164
					C91.477,199.653,89.758,194.43,85.747,190.121z"/>
			</g>
		</g>
		<g>
			<g>
				<path d="M204.958,94.368H18.083c-1.381,0-2.5,1.119-2.5,2.5s1.119,2.5,2.5,2.5h186.875c1.381,0,2.5-1.119,2.5-2.5
					S206.338,94.368,204.958,94.368z"/>
			</g>
		</g>
	</g>
</g>
<g id="Layer_18">
</g>
<g id="Layer_19">
</g>
<g id="Layer_20">
</g>
<g id="Layer_21">
</g>
<g id="Layer_22">
</g>
<g id="Layer_23">
</g>
<g id="Layer_24">
</g>
<g id="Layer_25">
</g>
<g id="Layer_26">
</g>
<g id="Layer_27">
</g>
<g id="Layer_28">
</g>
<g id="Layer_29">
</g>
<g id="Layer_30">
</g>
<g id="Layer_31">
</g>
<g id="Layer_32">
</g>
<g id="Layer_33">
</g>
<g id="Layer_34">
</g>
<g id="Layer_35">
</g>
<g id="Layer_36">
</g>
<g id="Layer_37">
</g>
<g id="Layer_38">
</g>
<g id="Layer_39">
</g>
<g id="Layer_40">
</g>
<g id="Layer_41">
</g>
<g id="Layer_42">
</g>
<g id="Layer_43">
</g>
<g id="Layer_44">
</g>
<g id="Layer_45">
</g>
<g id="Layer_46">
</g>
<g id="Layer_47">
</g>
<g id="Layer_48">
</g>
<g id="Layer_49">
</g>
<g id="Layer_50">
</g>
<g id="Layer_51">
</g>
<g id="Layer_52">
</g>
<g id="Layer_53">
</g>
<g id="Layer_54">
</g>
<g id="Layer_55">
</g>
<g id="Layer_56">
</g>
<g id="Layer_57">
</g>
<g id="Layer_58">
</g>
<g id="Layer_59">
</g>
<g id="Layer_60">
</g>
<g id="Layer_61">
</g>
<g id="Layer_62">
</g>
<g id="Layer_63">
</g>
<g id="Layer_64">
</g>
<g id="Layer_65">
</g>
<g id="Layer_66">
</g>
<g id="Layer_67">
</g>
<g id="Layer_68">
</g>
<g id="Layer_69">
</g>
<g id="Layer_70">
</g>
<g id="Layer_71">
</g>
<g id="Layer_72">
</g>
<g id="Layer_73">
</g>
<g id="Layer_74">
</g>
<g id="Layer_75">
</g>
<g id="Layer_76">
</g>
<g id="Layer_77">
</g>
<g id="Layer_78">
</g>
<g id="Layer_79">
</g>
<g id="Layer_80">
</g>
<g id="Layer_81">
</g>
<g id="Layer_82">
</g>
<g id="Layer_83">
</g>
<g id="Layer_84">
</g>
<g id="Layer_85">
</g>
</svg>
